<svg xmlns:dc="http://purl.org/dc/elements/1.1/" xmlns:xl="http://www.w3.org/1999/xlink" xmlns="http://www.w3.org/2000/svg" version="1.1" viewBox="0 0 880 880" width="880" height="880">
  <g>
    <path d="M 544.45904 344.4552 L 526.38236 345.1093 C 482.23673 339.471 437.79034 353.2734 406.2797 382.4045 C 374.7704 411.5344 359.84054 452.6293 365.9394 493.4376 L 368.83847 512.833 C 346.6557 495.61304 333.8458 470.20693 333.8458 443.42646 C 333.8458 416.64844 346.6557 391.2411 368.83847 374.02115 C 408.13468 343.51447 460.0235 330.6626 510.5555 338.9161 Z M 583.2597 381.96967 L 672.4599 370.91107 C 621.1302 294.0472 481.61797 262.74555 384.78193 308.5515 C 444.4868 267.7065 524.90236 258.08227 595.66415 287.21092 C 585.8341 256.82183 589.9866 224.02944 607.1424 196.56056 C 624.2956 169.08923 652.939 149.37044 686.3205 142.04418 L 603.7545 116.8512 C 602.8747 116.58295 601.9949 116.32449 601.1151 116.06358 L 565.3208 186.04338 L 580.2772 110.5747 C 528.48245 98.61824 474.6605 98.55087 423.40505 109.93407 L 431.8147 169.21295 L 407.8498 113.76073 C 382.8448 120.5223 358.5765 130.06199 335.60007 142.32591 C 315.98906 152.79287 297.77326 165.00902 281.14213 178.70732 L 297.29627 202.8738 L 270.08917 188.23232 C 239.30462 216.03315 214.65605 249.18567 197.60888 285.8145 L 276.0582 328.16864 L 189.7915 304.241 C 184.79634 317.23744 180.72866 330.6087 177.65736 344.28004 C 168.81843 383.62454 168.60378 424.1964 177.0121 463.5997 L 233.57806 456.26854 L 178.91079 472.4216 C 186.26574 508.3253 187.2025 544.63565 182.09868 580.0359 L 217.39478 572.0727 L 179.81707 593.7011 C 168.21159 654.95336 138.41283 712.9044 92.44933 760.5392 L 148.61913 730.2346 C 226.78225 688.0618 282.4817 619.5886 305.66483 540.9217 C 267.1212 482.7685 268.7642 413.324 316.0977 366.20615 C 313.66373 369.778 311.34104 373.46994 309.15747 377.30517 C 282.85533 423.48106 282.85533 481.17 309.15747 527.3459 C 326.60346 557.9714 331.4966 594.746 322.72128 629.2484 C 313.94595 663.7471 292.25075 693.0166 262.60436 710.3517 C 315.22455 697.1715 359.0429 691.7145 396.64844 691.9178 L 396.53714 691.8872 L 431.93923 689.3247 C 483.33647 685.6046 534.5601 698.29355 577.05615 725.2725 C 612.8796 748.0144 656.05666 758.7092 699.3821 755.5734 C 664.8148 763.9543 620.7089 760.4363 570.48956 733.3398 C 546.29546 720.2858 531.2636 714.43925 510.3978 714.0791 C 597.2011 750.5573 649.2476 822.5754 758.5 856.9295 C 721.1714 724.0965 694.2876 647.5242 683.6652 510.4836 L 613.0863 487.5053 C 587.32606 479.117 567.1559 457.87197 559.1928 430.7326 L 685.07765 466.26636 L 593.5415 419.71197 L 696.0856 456.5748 C 699.565 498.3446 709.5341 583.2685 737.7667 615.2242 L 756.8345 601.04454 C 735.615 564.67415 723.8902 524.2223 722.5957 482.9167 L 719.5615 386.14175 Z" fill="#231f20"/>
  </g>
</svg>
